<svg xmlns="http://www.w3.org/2000/svg" width="716" height="285"><g fill="none" fill-rule="evenodd"><g fill-rule="nonzero"><path fill="#E20062" d="M643 251h72v-21h-42l42-61v-22h-48l-6 20h22l-40 61v23Zm-46 0-31-104h29l17 74 18-74h28l-31 104h-30Z"/><path fill="#58585A" d="M243 186c-5-9-11-13-20-13-16 0-26 14-26 39 0 26 9 39 27 39 8 0 14-4 18-11v5c0 20-5 29-20 29-8 0-14-2-21-6l-1 12c7 3 14 4 22 4 25 0 33-13 33-41v-68h-11l-1 11Zm-1 22v9c0 15-6 24-16 24s-16-10-16-29 6-28 16-28 16 8 16 24Zm65-1h-31c1-16 7-24 16-24 10 0 15 8 15 24Zm12 9v-7c0-22-11-36-27-36-17 0-28 15-28 40 0 26 10 39 32 39 7 0 13-1 19-4v-11c-6 4-11 5-17 5-14 0-21-9-21-26h42Zm9-77v112h12v-46c0-13 7-21 16-21 8 0 12 5 12 16v51h12v-53c0-16-8-25-21-25-8 0-14 4-19 11v-45h-12Zm104 68h-31c1-16 7-24 16-24 10 0 15 8 15 24Zm12 9v-7c0-22-11-36-27-36-17 0-28 15-28 40 0 26 10 39 32 39 7 0 13-1 19-4v-11c-6 4-12 5-17 5-14 0-21-9-22-26h43Zm8-72v15h13v-15h-13Zm0 31v76h13v-76h-13Zm74 10c-2-7-9-12-18-12-8 0-15 5-19 13v-11h-12l1 19v57h12v-45c0-14 6-22 15-22 7 0 11 5 11 16v51h12v-45c0-14 6-22 15-22 7 0 11 5 11 16v51h12v-53c0-16-8-25-20-25-9 0-15 4-20 12Z"/></g><path fill="#E20062" d="M131 59c-1-11-6-23-12-32-8-11-19-21-32-25-14-4-30-2-44 5-9 4-17 10-23 17A66 66 0 0 0 0 69c0 9 3 19 7 27 5 12 13 24 21 35l29 44c13 24 23 50 29 76a302 302 0 0 1 106-84c12-7 24-13 35-22 7-6 14-13 18-21 8-15 8-33 3-49-3-9-7-18-13-26-10-12-23-20-38-22-13-2-27 2-39 8-11 6-20 15-26 24h-1"/></g></svg>